<svg xmlns="http://www.w3.org/2000/svg" width="24" height="24" viewBox="0 0 24 24">
    <defs>
        <clipPath id="7m4e797c3a">
            <path data-name="사각형 40205" style="fill:none" d="M0 0h24v24H0z"/>
        </clipPath>
    </defs>
    <path style="opacity:.2;fill:none" d="M0 0h23.666v24H0z"/>
    <g data-name="그룹 74062">
        <g data-name="마스크 그룹 74061" style="clip-path:url(#7m4e797c3a)">
            <path data-name="패스 13024" d="M10.559 22.893a18.367 18.367 0 0 1-8.717-8.953 8.1 8.1 0 0 1-.833-3.96 3.444 3.444 0 0 1 2.124-3.225 1.807 1.807 0 0 1 2.194.615c.62.866 1.226 1.749 1.806 2.646a1.912 1.912 0 0 1-.452 2.562c-.275.216-.562.41-.873.634a23.615 23.615 0 0 0 5.561 5.688c.172-.256.342-.491.5-.733a1.933 1.933 0 0 1 1.36-.911 1.723 1.723 0 0 1 1.3.3c.851.592 1.7 1.189 2.528 1.806a1.883 1.883 0 0 1 .622 2.273 3.329 3.329 0 0 1-2.95 2.14 6.353 6.353 0 0 1-.653.034 7.871 7.871 0 0 1-3.517-.916z" transform="translate(.081 -.879)" style="stroke:#1559f0;stroke-width:2px;fill:none"/>
            <g data-name="패스 13025" style="fill:none">
                <path d="M13.043 12.587v-1.343h-.17a2.464 2.464 0 0 1-2.551-2.363V3.364A2.465 2.465 0 0 1 12.873 1h9.358a2.465 2.465 0 0 1 2.553 2.364v5.515a2.465 2.465 0 0 1-2.553 2.363h-4.716l-3.861 2.512a.486.486 0 0 1-.181.036.427.427 0 0 1-.3-.117.375.375 0 0 1-.129-.279z" style="stroke:none" transform="translate(-1.462 -.669)"/>
                <path d="m14.743 11.016 2.267-1.475h5.216c.467-.003.86-.303.858-.656V3.358c.002-.354-.39-.654-.858-.658H12.88c-.466.004-.858.304-.857.658v5.529c-.001.353.39.653.857.657h1.864v1.472m-1.27 2.773a.427.427 0 0 1-.3-.117.375.375 0 0 1-.13-.28v-2.148h-.17c-1.414-.007-2.556-1.064-2.551-2.363V3.364c-.005-1.3 1.137-2.357 2.551-2.364h9.359c1.416.007 2.557 1.064 2.552 2.364v5.515c.005 1.298-1.136 2.355-2.552 2.362h-4.717l-3.862 2.512a.486.486 0 0 1-.18.036z" style="fill:#1559f0;stroke:none" transform="translate(-1.462 -.669)"/>
            </g>
            <path data-name="패스 13026" d="M12.322 5.01a1 1 0 1 0 1-1.01 1 1 0 0 0-1 1.01" transform="translate(-.231 .726)" style="fill:#1559f0"/>
            <path data-name="패스 13027" d="M15.322 5.01a1 1 0 1 0 1-1.01 1 1 0 0 0-1 1.01" transform="translate(-.231 .726)" style="fill:#1559f0"/>
            <path data-name="패스 13028" d="M18.322 5.01a1 1 0 1 0 1-1.01 1 1 0 0 0-1 1.01" transform="translate(-.231 .726)" style="fill:#1559f0"/>
        </g>
    </g>
</svg>
