<svg xmlns="http://www.w3.org/2000/svg" width="30" height="30" viewBox="0 0 30 30">
    <path data-name="사각형 39720" style="fill:none" d="M0 0h30v30H0z"/>
    <g data-name="그룹 74254">
        <path data-name="패스 4717" d="M21.088 6.216A7.371 7.371 0 0 0 6.531 6.2 7.288 7.288 0 0 0 6.4 20.68a7.38 7.38 0 0 0 14.467.033 7.29 7.29 0 0 0 .218-14.5" transform="translate(1.25 1.25)" style="fill:#fff"/>
        <path data-name="사각형 39717" transform="translate(10.522 18.105)" style="fill:#c9d0db;stroke:#c9d0db;stroke-width:.5px" d="M0 0h8.956v1.774H0z"/>
        <path data-name="사각형 39718" transform="translate(10.522 14.557)" style="fill:#c9d0db;stroke:#c9d0db;stroke-width:.5px" d="M0 0h8.956v1.774H0z"/>
        <path data-name="사각형 39719" transform="rotate(165.02 9.063 6.71)" style="fill:#c9d0db;stroke:#c9d0db;stroke-width:.5px" d="M0 0h8.956v1.774H0z"/>
        <path data-name="패스 4718" d="M40.755 6.88a2.662 2.662 0 1 1 2.687-2.662 2.678 2.678 0 0 1-2.687 2.662m0-3.549a.887.887 0 1 0 .9.887.892.892 0 0 0-.9-.887" transform="translate(-15.008 .576)" style="fill:#fff"/>
        <path data-name="패스 4719" d="M3.238 44.4a2.662 2.662 0 1 1 2.687-2.662A2.678 2.678 0 0 1 3.238 44.4m0-3.549a.887.887 0 1 0 .9.887.892.892 0 0 0-.9-.887" transform="translate(1.015 -15.646)" style="fill:#fff"/>
    </g>
</svg>
