<svg xmlns="http://www.w3.org/2000/svg" width="120" height="120" viewBox="0 0 120 120">
    <g transform="translate(-795 -2477)">
        <g data-name="그룹 74080">
            <path data-name="패스 13045" d="M25.341 13 9.5 4.5v19.134z" transform="translate(829.272 2536.136)" style="fill:#4262ff"/>
            <g data-name="그룹 74083">
                <g data-name="그룹 74085" transform="translate(815.01 2526.127)">
                    <rect data-name="사각형 40221" width="60.724" height="47.523" rx="1.029" style="stroke:#111;fill:none;stroke-linecap:round;stroke-linejoin:round;stroke-width:3px"/>
                    <path data-name="패스 13046" d="M13.7 48.023H3.14a2.641 2.641 0 0 1-2.64-2.64V3.14A2.641 2.641 0 0 1 3.14.5H13.7z" transform="translate(-.5 -.5)" style="stroke:#111;fill:none;stroke-linecap:round;stroke-linejoin:round;stroke-width:3px"/>
                    <path data-name="패스 13047" d="M29.061 48.023H18.5V.5h10.561A2.641 2.641 0 0 1 31.7 3.14v42.243a2.641 2.641 0 0 1-2.639 2.64z" transform="translate(29.023 -.5)" style="stroke:#111;fill:none;stroke-linecap:round;stroke-linejoin:round;stroke-width:3px"/>
                    <path data-name="선 142" transform="translate(0 15.841)" style="stroke:#111;fill:none;stroke-linecap:round;stroke-linejoin:round;stroke-width:3px" d="M0 0h13.201"/>
                    <path data-name="선 143" transform="translate(0 31.682)" style="stroke:#111;fill:none;stroke-linecap:round;stroke-linejoin:round;stroke-width:3px" d="M0 0h13.201"/>
                    <path data-name="선 144" transform="translate(47.523 15.841)" style="stroke:#111;fill:none;stroke-linecap:round;stroke-linejoin:round;stroke-width:3px" d="M0 0h13.201"/>
                    <path data-name="선 145" transform="translate(47.523 31.682)" style="stroke:#111;fill:none;stroke-linecap:round;stroke-linejoin:round;stroke-width:3px" d="M0 0h13.201"/>
                </g>
            </g>
        </g>
        <circle data-name="타원 250" cx="27.693" cy="27.693" r="27.693" transform="translate(846.372 2484.293)" style="fill:#4262ff"/>
        <g data-name="그룹 74087" transform="translate(860.692 2499.709)">
            <rect data-name="사각형 40222" width="21.56" height="17.967" rx="1" transform="translate(.599 5.989)" style="stroke:#fff;fill:none;stroke-linecap:round;stroke-linejoin:round;stroke-width:3px"/>
            <path data-name="패스 13048" d="M24.489 20.175 18.5 17.78V9.4L24.489 7z" transform="translate(3.659 1.384)" style="stroke:#fff;fill:none;stroke-linecap:round;stroke-linejoin:round;stroke-width:3px"/>
            <path data-name="선 146" transform="translate(1.797 .599)" style="stroke:#fff;fill:none;stroke-linecap:round;stroke-linejoin:round;stroke-width:3px" d="M0 0h10.78"/>
            <path data-name="선 147" transform="translate(12.577 .599)" style="stroke:#fff;fill:none;stroke-linecap:round;stroke-linejoin:round;stroke-width:3px" d="M7.187 5.39 0 0"/>
        </g>
    </g>
</svg>
