<svg xmlns="http://www.w3.org/2000/svg" width="120" height="120" viewBox="0 0 120 120">
    <path style="fill:#ffdede;opacity:.004" d="M0 0h120v120H0z"/>
    <g transform="translate(16 16)" data-name="그룹 74074">
        <path data-name="사각형 1125" style="opacity:.347;fill:none" d="M0 0h89v89H0z"/>
        <path data-name="패스 3966" d="M11434.524 14707.98h47.023v-3.768h-47.023a3.764 3.764 0 0 1-3.761-3.76v-16.93a3.763 3.763 0 0 1 3.761-3.76h39.5V14676h-39.5a7.535 7.535 0 0 0-7.525 7.525v16.93a7.535 7.535 0 0 0 7.525 7.525z" transform="translate(-11423.652 -14633.15)" style="fill:#949ca5"/>
        <path data-name="패스 3968" d="M11474.022 14707.98H11427v-3.768h47.023a3.764 3.764 0 0 0 3.761-3.76v-16.93a3.763 3.763 0 0 0-3.761-3.76h-39.5V14676h39.5a7.535 7.535 0 0 1 7.525 7.525v16.93a7.535 7.535 0 0 1-7.526 7.525z" transform="translate(-11395.439 -14661.366)" style="fill:#949ca5"/>
        <g data-name="그룹 1527" transform="translate(8.945 5.59)">
            <rect data-name="사각형 1122" width="30" height="22" rx="2" transform="translate(.055 .41)" style="stroke-width:3px;fill:#fff;stroke:#011111"/>
            <rect data-name="사각형 1123" width="19" height="3" rx="1.5" transform="translate(6.055 6.41)" style="fill:#111"/>
            <rect data-name="사각형 1124" width="11" height="3" rx="1.5" transform="translate(6.055 13.41)" style="fill:#111"/>
        </g>
        <g data-name="그룹 1531" transform="translate(44.726 33.546)">
            <rect data-name="사각형 1122" width="30" height="22" rx="2" transform="translate(.274 .453)" style="stroke-width:3px;fill:#fff;stroke:#011111"/>
            <rect data-name="사각형 40209" width="19" height="3" rx="1.5" transform="translate(6.274 6.453)" style="fill:#111"/>
            <rect data-name="사각형 40210" width="11" height="3" rx="1.5" transform="translate(6.274 13.453)" style="fill:#111"/>
        </g>
        <g data-name="그룹 1532" transform="translate(14.536 61.499)">
            <rect data-name="사각형 1122" width="30" height="22" rx="2" transform="translate(.464 .5)" style="stroke-width:3px;fill:#fff;stroke:#011111"/>
            <rect data-name="사각형 40211" width="19" height="3" rx="1.5" transform="translate(6.464 6.5)" style="fill:#111"/>
            <rect data-name="사각형 40212" width="11" height="3" rx="1.5" transform="translate(6.464 13.5)" style="fill:#111"/>
        </g>
        <circle data-name="타원 141" cx="5.5" cy="5.5" r="5.5" transform="translate(56 11)" style="fill:#4262ff"/>
        <circle data-name="타원 248" cx="5.5" cy="5.5" r="5.5" transform="translate(19 39)" style="fill:#4262ff"/>
        <g data-name="그룹 1533" transform="translate(63.735 61.498)">
            <ellipse data-name="타원 140" cx="11" cy="11.5" rx="11" ry="11.5" transform="translate(.265 -.499)" style="fill:#4262ff"/>
            <path data-name="패스 3964" d="m-9763-14190.438 2.507 3.763 2.616-3.922 2.4-3.6" transform="translate(9770.325 14201.881)" style="stroke-linecap:round;stroke-linejoin:round;stroke:#fff;stroke-width:3px;fill:none"/>
        </g>
        <path data-name="패스 3967" d="m-9761-14170 5.641 5.642-5.641 5.643" transform="translate(9815.133 14237.295)" style="stroke:#949ca5;stroke-linecap:round;stroke-linejoin:round;stroke-width:3px;fill:none"/>
    </g>
</svg>
