<svg id="ico_maum_회의록" data-name="ico_maum 회의록" xmlns="http://www.w3.org/2000/svg" width="30" height="30" viewBox="0 0 30 30">
  <rect id="guide" width="30" height="30" fill="none" opacity="0.18"/>
  <g id="ico_Announcer" transform="translate(-351 -472.744)">
    <path id="빼기_126" data-name="빼기 126" d="M5260,23283.746a5.005,5.005,0,0,1-5-5v-2.062h2.834a1,1,0,0,0,0-2H5255v-1.5h2.834a1,1,0,1,0,0-2h-2.8a5,5,0,0,1,9.967.555v7.008A5,5,0,0,1,5260,23283.746Z" transform="translate(-4893.998 -22792)" fill="#fff"/>
    <path id="패스_4286" data-name="패스 4286" d="M17,6c0,3.866-3.582,7-8,7S1,9.866,1,6" transform="translate(357 481.744)" fill="none" stroke="#fff" stroke-linecap="round" stroke-width="2"/>
    <line id="선_322" data-name="선 322" y1="6" transform="translate(366 494.744)" fill="none" stroke="#fff" stroke-width="2"/>
    <line id="선_323" data-name="선 323" y1="9" transform="translate(370.5 500.744) rotate(90)" fill="none" stroke="#fff" stroke-linecap="round" stroke-width="2"/>
  </g>
</svg>
