<svg xmlns="http://www.w3.org/2000/svg" width="30" height="30" viewBox="0 0 30 30">
  <g id="ico_Fast대화형_AI" data-name="ico_Fast대화형 AI" transform="translate(-7786 -1231)">
    <rect id="_30" data-name="30" width="30" height="30" transform="translate(7786 1231)" fill="none" opacity="0.5"/>
    <path id="빼기_103" data-name="빼기 103" d="M5127,22808.215a.5.5,0,0,1-.5-.5V22806h-.5a3,3,0,0,1-3-3v-8a3.007,3.007,0,0,1,3-3.006h12a3.007,3.007,0,0,1,3,3.006v5h-7a3,3,0,0,0-3,3v3.365l-3.784,1.8A.491.491,0,0,1,5127,22808.215ZM5127,22799a1,1,0,0,0,0,2h2a1,1,0,0,0,0-2Zm0-3a1,1,0,0,0,0,2h10a1,1,0,0,0,0-2Z" transform="translate(2664 -21558.25)" fill="#fff"/>
    <path id="빼기_96" data-name="빼기 96" d="M5398,21574h-12a3,3,0,0,1-3-3v-8a3,3,0,0,1,3-3h12a3,3,0,0,1,3,3v8A3,3,0,0,1,5398,21574Zm-1.8-8a1.2,1.2,0,1,0,1.2,1.2A1.2,1.2,0,0,0,5396.2,21566Zm-4,0a1.2,1.2,0,1,0,1.2,1.2A1.2,1.2,0,0,0,5392.2,21566Zm-4,0a1.2,1.2,0,1,0,1.2,1.2A1.2,1.2,0,0,0,5388.2,21566Z" transform="translate(2414 -20316.25)" fill="#fff"/>
    <path id="다각형_43" data-name="다각형 43" d="M2.548.951a.5.5,0,0,1,.9,0L5.661,5.6a.5.5,0,0,1-.452.714H.791A.5.5,0,0,1,.339,5.6Z" transform="translate(7805.2 1260.25) rotate(-90)" fill="#fff"/>
  </g>
</svg>
